<svg fill="none" height="36" viewBox="0 0 36 36" width="36" xmlns="http://www.w3.org/2000/svg" xmlns:xlink="http://www.w3.org/1999/xlink"><clipPath id="a"><path d="m0 0h36v36h-36z"/></clipPath><g clip-path="url(#a)"><path d="m33.5626 25.2442-.2192.1907-10.8528 6.8493c-.5265.336-1.1213.5606-1.7449.6591-.6237.0984-1.262.0685-1.8727-.088l-10.8527-5.139v.9483c.00871.081-.00223.1628-.03195.239-.02971.0763-.0774.1448-.13932.2004-.06192.0555-.13639.0965-.21756.1197-.08117.0233-.16684.0281-.25028.0141h-5.74428c-.06796.0155-.13844.0178-.20735.0069-.0689-.0109-.13488-.0348-.19411-.0704-.05922-.0356-.11053-.0821-.15094-.1368-.04042-.0548-.06914-.1167-.08451-.1822v-10.278c.0157-.1533.08908-.2958.20635-.4008s.27038-.1652.43056-.1693h5.5349c.0829-.0133.16787-.0081.24834.0152s.15429.0641.21574.1192c.06146.0551.10891.123.13869.1986.02978.0755.04109.1566.03305.2371v.7607h5.95807c.7318-.0467 1.466.0471 2.1598.2759.6937.2289 1.3331.5882 1.8809 1.0571l.8518.7619c.1136.1007.1882.2356.2116.3825h4.8936c.5973-.0155 1.1772.1949 1.6149.586.4377.3912.6982.9318.7255 1.5056-.0281.2554-.1511.4925-.3464.6677-.1954.1752-.4499.2767-.7169.2859h-8.2832c-.0822-.0067-.1649.0029-.243.0285-.078.0256-.1497.0664-.2105.12s-.1093.1188-.1425.1914c-.0332.0725-.0503.1509-.0503.2302s.0171.1577.0503.2303c.0332.0725.0817.1377.1425.1913s.1325.0945.2105.12c.0781.0256.1608.0353.243.0285h8.7217c.3379.0024.6728-.0601.9852-.1839s.596-.3063.8339-.5369c.238-.2306.4256-.5046.5518-.8059.1263-.3013.1886-.6238.1833-.9485l4.4661-1.902h.855c.3275.0561.6353.1898.8954.3891s.4644.4578.5944.7521c.4188.9547-.0055 1.9072-1.2815 2.4794z" fill="#000" fill-opacity=".9"/><path clip-rule="evenodd" d="m23 20c4.9706 0 9-4.0294 9-9 0-4.97056-4.0294-9-9-9s-9 4.02944-9 9c0 4.9706 4.0294 9 9 9zm-.7023-3.0933c.0541.0622.1238.0933.2089.0933h.9635c.0774 0 .1432-.0311.1974-.0933.0619-.0622.0929-.1422.0929-.24v-.9333c.5494-.08 1.0293-.2445 1.4394-.4934.4102-.2488.7275-.5733.9519-.9733.2322-.4.3483-.8622.3483-1.3867 0-.5422-.1006-.9911-.3018-1.3466-.2012-.3645-.5185-.6578-.9519-.88-.4334-.2311-1.0022-.4222-1.7065-.5734-.4257-.10662-.7623-.20885-1.01-.30662-.2476-.09778-.4256-.21334-.5339-.34667-.1007-.13333-.151-.28889-.151-.46667 0-.28444.0968-.49333.2903-.62666.1934-.14223.4566-.21334.7893-.21334.3173 0 .5766.07556.7778.22667.2012.14222.3251.31111.3715.50667.0464.08.1006.13777.1625.17333s.1354.05333.2206.05333h1.5323c.0697 0 .1277-.02666.1741-.08.0465-.06222.0697-.12889.0697-.2-.0077-.32-.1083-.65333-.3018-1-.1858-.34666-.4605-.65777-.8242-.93333-.3638-.27556-.8126-.46667-1.3466-.57333v-.96c0-.09778-.031-.17778-.0929-.24-.0542-.06223-.12-.09334-.1974-.09334h-.9635c-.0851 0-.1548.03111-.2089.09334-.0542.06222-.0813.14222-.0813.24v.93333c-.7816.12444-1.3969.43555-1.8458.93333-.4411.49778-.6616 1.10222-.6616 1.81334 0 .55111.1083 1.01332.325 1.38662.2167.3645.5301.6623.9403.8934.4179.2222.9209.4044 1.5091.5466.4566.1067.8204.2134 1.0912.32.2786.0978.4798.2134.6037.3467.1238.1245.1857.2845.1857.48 0 .2756-.1161.4933-.3482.6533-.2245.16-.5611.24-1.01.24-.2709 0-.4992-.0355-.6849-.1066-.178-.08-.325-.1822-.4411-.3067-.1084-.1244-.1935-.2533-.2554-.3867-.0542-.0711-.1084-.1288-.1625-.1733-.0542-.0444-.1355-.0667-.2438-.0667h-1.4627c-.0697 0-.1316.0312-.1858.0934-.0464.0533-.0696.1155-.0696.1866.0155.4089.1238.8.325 1.1734.2013.3644.4992.6755.8939.9333.4024.2578.9016.4311 1.4975.52v.92c0 .0978.0271.1778.0813.24z" fill="#32b9ff" fill-rule="evenodd"/></g></svg>