<svg fill="none" height="36" viewBox="0 0 36 36" width="36" xmlns="http://www.w3.org/2000/svg"><path d="m2.25 29.25c0 .6223.50273 1.125 1.125 1.125h29.25c.6223 0 1.125-.5027 1.125-1.125v-13.7812h-31.5zm20.3555-6.4688c0-.1546.1265-.2812.2812-.2812h5.8008c.1547 0 .2813.1266.2813.2812v2.5313c0 .1547-.1266.2813-.2813.2813h-5.8008c-.1547 0-.2812-.1266-.2812-.2813z" fill="#32b9ff"/><path d="m3.375 5.625h29.25c.6223 0 1.125.50273 1.125 1.125v5.625h-31.5v-5.625c0-.62227.50273-1.125 1.125-1.125z" fill="#000" fill-opacity=".9"/></svg>