<svg width="52" height="52" viewBox="0 0 52 52" fill="none" xmlns="http://www.w3.org/2000/svg">
<path d="M26 47.6667C37.9662 47.6667 47.6667 37.9662 47.6667 26C47.6667 20.0239 45.2472 14.6128 41.3343 10.693C37.4123 6.76412 31.99 4.33337 26 4.33337C20.01 4.33337 14.5877 6.76412 10.6657 10.693C6.75285 14.6128 4.33334 20.0238 4.33334 26C4.33334 37.9662 14.0338 47.6667 26 47.6667Z" stroke="white" stroke-width="2" stroke-linecap="round" stroke-linejoin="round"/>
<path d="M4.33334 26H8.66668" stroke="white" stroke-width="2" stroke-linecap="round" stroke-linejoin="round"/>
<path d="M10.6656 10.693L14.0559 14.0833" stroke="white" stroke-width="2" stroke-linecap="round" stroke-linejoin="round"/>
<path d="M26 4.33337V8.66671" stroke="white" stroke-width="2" stroke-linecap="round" stroke-linejoin="round"/>
<path d="M47.6667 26H43.3333" stroke="white" stroke-width="2" stroke-linecap="round" stroke-linejoin="round"/>
<path d="M41.3345 10.693L37.9442 14.0833" stroke="white" stroke-width="2" stroke-linecap="round" stroke-linejoin="round"/>
<path d="M26 21.6666V34.6666" stroke="white" stroke-width="2" stroke-linecap="round" stroke-linejoin="round"/>
<path d="M43.1733 39.2124C39.2117 44.354 32.9927 47.6666 26 47.6666C19.0073 47.6666 12.7883 44.354 8.82669 39.2124C13.8893 36.3197 19.7517 34.6666 26 34.6666C32.2483 34.6666 38.1106 36.3197 43.1733 39.2124Z" stroke="white" stroke-width="2" stroke-linecap="round" stroke-linejoin="round"/>
</svg>
