<svg width="52" height="52" viewBox="0 0 52 52" fill="none" xmlns="http://www.w3.org/2000/svg">
<path d="M6 8.87755C6 8.32527 6.44772 7.87755 7 7.87755H9.85738C14.5181 7.87755 19.078 6.52048 22.9803 3.97204L26 2L29.0197 3.97204C32.922 6.52048 37.4819 7.87755 42.1426 7.87755H45C45.5523 7.87755 46 8.32527 46 8.87755V27.2819C46 34.6378 41.9621 41.4 35.4863 44.889L26 50L16.5137 44.889C10.0379 41.4 6 34.6378 6 27.2819V8.87755Z" stroke="white" stroke-width="2" stroke-linejoin="round"/>
<rect x="16.64" y="20.8" width="18.72" height="13.52" rx="2" stroke="white" stroke-width="2"/>
<path d="M29.12 21.84V18.72C29.12 16.9968 27.7231 15.6 26 15.6V15.6C24.2769 15.6 22.88 16.9968 22.88 18.72V21.84" stroke="white" stroke-width="2"/>
<path d="M26 27.04L26 29.12" stroke="white" stroke-width="2" stroke-linecap="round"/>
</svg>
