<svg width="53" height="52" viewBox="0 0 53 52" fill="none" xmlns="http://www.w3.org/2000/svg">
<path d="M41.3112 27.647L48.1272 20.831C48.9083 20.0499 48.9083 18.7836 48.1272 18.0025L36.1178 5.99307C35.3367 5.21202 34.0704 5.21202 33.2894 5.99307L20.6192 18.6632C22.88 20.9234 27.6789 21.4336 31.1101 17.4459M41.3112 27.647L31.1101 17.4459M41.3112 27.647L36.8762 32.082M31.1101 17.4459L19.0779 5.41373C18.2969 4.63268 17.0306 4.63268 16.2495 5.41373L4.41421 17.249C3.63316 18.0301 3.63316 19.2964 4.41421 20.0774L25.2333 40.8965C26.0143 41.6776 27.2806 41.6776 28.0617 40.8965L31.3946 37.5636M31.3946 37.5636C31.3946 37.5636 27.8067 33.9757 25.5078 31.6767M31.3946 37.5636L36.8762 32.082M36.8762 32.082L31.1101 26.3159" stroke="white" stroke-width="2" stroke-linecap="round"/>
<path d="M10 46.9995H42" stroke="white" stroke-width="2" stroke-linecap="round"/>
</svg>
