<svg width="52" height="52" viewBox="0 0 52 52" fill="none" xmlns="http://www.w3.org/2000/svg">
<path d="M24.5388 3.56339C25.3293 2.71758 26.6707 2.71758 27.4612 3.56339L32.2678 8.70626C32.6621 9.12811 33.2194 9.35898 33.7965 9.33948L40.8319 9.10172C41.9889 9.06261 42.9374 10.0111 42.8983 11.1681L42.6605 18.2035C42.641 18.7806 42.8719 19.3379 43.2937 19.7322L48.4366 24.5388C49.2824 25.3293 49.2824 26.6707 48.4366 27.4612L43.2937 32.2678C42.8719 32.6621 42.641 33.2194 42.6605 33.7965L42.8983 40.8319C42.9374 41.9889 41.9889 42.9374 40.8319 42.8983L33.7965 42.6605C33.2194 42.641 32.6621 42.8719 32.2678 43.2937L27.4612 48.4366C26.6707 49.2824 25.3293 49.2824 24.5388 48.4366L19.7322 43.2937C19.3379 42.8719 18.7806 42.641 18.2035 42.6605L11.1681 42.8983C10.0111 42.9374 9.06261 41.9889 9.10172 40.8319L9.33948 33.7965C9.35898 33.2194 9.12811 32.6621 8.70626 32.2678L3.56339 27.4612C2.71758 26.6707 2.71758 25.3293 3.56339 24.5388L8.70626 19.7322C9.12811 19.3379 9.35898 18.7806 9.33948 18.2035L9.10172 11.1681C9.06261 10.0111 10.0111 9.06261 11.1681 9.10172L18.2035 9.33948C18.7806 9.35898 19.3379 9.12811 19.7322 8.70626L24.5388 3.56339Z" stroke="white" stroke-width="2"/>
<path d="M18 24.8286L24.1132 31L36 19" stroke="white" stroke-width="2" stroke-linecap="round" stroke-linejoin="round"/>
</svg>
