<svg width="52" height="52" viewBox="0 0 52 52" fill="none" xmlns="http://www.w3.org/2000/svg">
<path d="M26.0007 29.3134L14.9929 22.9581C14.6835 22.7795 14.3023 22.7795 13.9929 22.9581L2.98517 29.3134M26.0007 29.3134V42.0241C26.0007 42.3814 25.8101 42.7115 25.5007 42.8901L14.4929 49.2455M26.0007 29.3134L14.4929 35.293M14.4929 49.2455L3.48517 42.8901C3.17577 42.7115 2.98517 42.3814 2.98517 42.0241V29.3134M14.4929 49.2455V35.293M2.98517 29.3134L14.4929 35.293" stroke="white" stroke-width="2" stroke-linejoin="round"/>
<path d="M37.508 9.39889L26.5002 3.04356C26.1908 2.86493 25.8096 2.86492 25.5002 3.04356L14.4925 9.39889M37.508 9.39889V22.1096C37.508 22.4668 37.3174 22.7969 37.008 22.9756L26.0002 29.3309M37.508 9.39889L26.0002 15.3785M26.0002 29.3309L14.9925 22.9756C14.6831 22.7969 14.4925 22.4668 14.4925 22.1095V9.39889M26.0002 29.3309V15.3785M14.4925 9.39889L26.0002 15.3785" stroke="white" stroke-width="2" stroke-linejoin="round"/>
<path d="M49.0158 29.3134L38.008 22.9581C37.6986 22.7795 37.3174 22.7795 37.008 22.9581L26.0003 29.3134M49.0158 29.3134V42.0241C49.0158 42.3814 48.8252 42.7115 48.5158 42.8901L37.508 49.2455M49.0158 29.3134L37.508 35.293M37.508 49.2455L26.5003 42.8901C26.1909 42.7115 26.0003 42.3814 26.0003 42.0241V29.3134M37.508 49.2455V35.293M26.0003 29.3134L37.508 35.293" stroke="white" stroke-width="2" stroke-linejoin="round"/>
</svg>
