<svg width="52" height="52" viewBox="0 0 52 52" fill="none" xmlns="http://www.w3.org/2000/svg">
<path d="M41.7498 11.0003L45.9921 13.4241C46.6154 13.7802 47 14.443 46.9999 15.1608L46.9994 26L46.9999 36.8392C47 37.557 46.6154 38.2198 45.9921 38.5759L36.4997 43.9995L26.9924 49.4329C26.3775 49.7843 25.6225 49.7843 25.0076 49.4329L20.7502 46.9997M31.2498 5.00026L26.9924 2.56713C26.3775 2.21571 25.6225 2.21571 25.0076 2.56713L15.5003 8.00053L6.00787 13.4241C5.38464 13.7802 5.00002 14.443 5.00006 15.1608L5.00062 26L5.00006 36.8392C5.00002 37.557 5.38464 38.2198 6.00787 38.5759L10.2502 40.9997" stroke="white" stroke-width="2" stroke-linecap="round" stroke-linejoin="round"/>
<path d="M39 6L14 28.1739H22.3591L14 45L39 22.8261H30.6409L39 6Z" stroke="white" stroke-width="2" stroke-linejoin="round"/>
</svg>
