<svg width="52" height="52" viewBox="0 0 52 52" fill="none" xmlns="http://www.w3.org/2000/svg">
<path d="M26 34.6667C37.9662 34.6667 47.6667 30.7865 47.6667 26C47.6667 21.2135 37.9662 17.3334 26 17.3334C14.0338 17.3334 4.33334 21.2135 4.33334 26C4.33334 30.7865 14.0338 34.6667 26 34.6667Z" stroke="white" stroke-width="2" stroke-linecap="round" stroke-linejoin="round"/>
<path d="M34.6667 26C34.6667 37.9662 30.7865 47.6667 26 47.6667C21.2135 47.6667 17.3333 37.9662 17.3333 26C17.3333 14.0339 21.2135 4.33337 26 4.33337C30.7865 4.33337 34.6667 14.0339 34.6667 26Z" stroke="white" stroke-width="2" stroke-linecap="round" stroke-linejoin="round"/>
<path d="M26 47.6667C37.9662 47.6667 47.6667 37.9662 47.6667 26C47.6667 14.0339 37.9662 4.33337 26 4.33337C14.0338 4.33337 4.33334 14.0339 4.33334 26C4.33334 37.9662 14.0338 47.6667 26 47.6667Z" stroke="white" stroke-width="2" stroke-linejoin="round"/>
</svg>
