<svg fill="none" height="36" viewBox="0 0 36 36" width="36" xmlns="http://www.w3.org/2000/svg"><path d="m32.3296 31.0802c-.1485.3765-.36.7065-.633.9915-.2715.2839-.5968.5108-.957.6675-.3645.159-.765.24-1.197.24h-23.32801c-.62322.0003-1.23339-.1785-1.75784-.5152-.52444-.3367-.94104-.817-1.20016-1.3838-.17229-.3817-.25979-.7962-.2565-1.215v-17.064c0-.8655.3015-1.6005.906-2.205.28622-.2935.62953-.5254 1.00875-.68117.37922-.15582.78633-.23233 1.19625-.22483h23.32801c.867 0 1.602.3015 2.205.906.606.6045.9075 1.3395.9075 2.205v4.65h-7.7625c-.867 0-1.602.297-2.205.891-.2945.2821-.5272.6223-.6835.999-.1562.3767-.2325.7818-.224 1.1895.0225.5925.1485 1.1175.3765 1.5735.183.387.4845.741.906 1.059.4215.3195 1.032.48 1.83.48h7.761v6.2235c0 .4335-.075.837-.222 1.215zm-9.0795-10.5495c0-.4335.1485-.798.444-1.095.1425-.1449.3132-.259.5015-.3353.1884-.0764.3903-.1134.5935-.1087.4335 0 .798.1485 1.095.444.2955.297.444.6615.444 1.095s-.15.804-.4455 1.11c-.1398.1498-.3095.2685-.4982.3483-.1886.0799-.392.1191-.5968.1152-.2045.0039-.4075-.0352-.5959-.1148-.1883-.0796-.3579-.1979-.4976-.3472-.1442-.1464-.2578-.3202-.334-.511-.0763-.1909-.1136-.395-.11-.6005z" fill="#32b9ff"/><path d="m12.375 8.11517h15.525l-1.983-3.795c-.3645-.4095-.798-.741-1.299-.9915-.4335-.1815-.963-.291-1.59-.324-.627-.0345-1.3395.165-2.1375.597-.5235.2745-1.254.6615-2.1885 1.164-.9345.501-1.881 1.002-2.8395 1.5045-1.0935.5925-2.2575 1.2075-3.4875 1.845z" fill="#000" fill-opacity=".9"/></svg>