<svg fill="none" height="36" viewBox="0 0 36 36" width="36" xmlns="http://www.w3.org/2000/svg"><g clip-rule="evenodd" fill-rule="evenodd"><path d="m30 10h-7v3h6v2h-6v9h7c1.1046 0 2-.8954 2-2v-10c0-1.1046-.8954-2-2-2z" fill="#000" fill-opacity=".9"/><path d="m6 3c-1.10457 0-2 .89543-2 2v26c0 1.1046.89543 2 2 2h13c1.1046 0 2-.8954 2-2v-26c0-1.10457-.8954-2-2-2zm3 16h-2v2h2zm0 4h-2v2h2zm-2 4h2v2h-2zm6.5-4h-2v2h2zm-2-4h2v2h-2zm2 8h-2v2h2zm2.5-4h2v2h-2zm2-4h-2v2h2zm-2 8h2v2h-2z" fill="#32b9ff"/></g></svg>